<svg version="1.1" xmlns="http://www.w3.org/2000/svg" xmlns:xlink="http://www.w3.org/1999/xlink" width="29.23195" height="61.16253" viewBox="0,0,29.23195,61.16253"><g transform="translate(-224.09621,-147.45058)"><g stroke-width="0.5" stroke-miterlimit="10"><g fill="#005aff" stroke="#000000" stroke-linecap="round" stroke-linejoin="round"><path d="M244.67647,167.98135l1.98866,10.52134l-4.34048,0.84784l-1.99516,-10.56784"/><path d="M246.37184,176.91035l2.04868,10.85664l-4.34313,0.82185l-2.04732,-10.82519"/></g><path d="M246.15916,191.0566c-1.65206,-0.14688 -2.87228,-1.60519 -2.72542,-3.25725c0.14688,-1.65206 1.60519,-2.87228 3.25725,-2.7254c1.65206,0.14686 2.87228,1.60519 2.7254,3.25725c-0.14686,1.65206 -1.60517,2.87225 -3.25723,2.7254z" fill="#ffffff" stroke="#000000" stroke-linecap="butt" stroke-linejoin="miter"/><path d="M236.43107,188.58901c-0.61864,0 -1.12015,-0.51468 -1.12015,-1.14953v-1.92955c0,-0.63485 0.5015,-1.14951 1.12015,-1.14951h7.16111c0.61864,0 1.12016,0.51467 1.12016,1.14951v1.92955c0,0.63485 -0.50152,1.14953 -1.12016,1.14953z" fill="#692b00" stroke="#000000" stroke-linecap="butt" stroke-linejoin="miter"/><path d="M239.74308,168.4638c-0.5026,0 -0.91006,-0.51467 -0.91006,-1.14951v-3.95149c0,-0.63485 0.40745,-1.14953 0.91006,-1.14953h0.91001c0.5026,0 0.91006,0.51468 0.91006,1.14953v3.95149c0,0.63485 -0.40745,1.14951 -0.91006,1.14951z" fill="#ffffff" stroke="#000000" stroke-linecap="butt" stroke-linejoin="miter"/><path d="M231.79221,156.10645c0,-4.64243 3.76344,-8.40587 8.40587,-8.40587c4.64243,0 8.40587,3.76344 8.40587,8.40587c0,4.64243 -3.76344,8.40587 -8.40587,8.40587c-4.64243,0 -8.40587,-3.76344 -8.40587,-8.40587z" fill="#ffffff" stroke="#000000" stroke-linecap="butt" stroke-linejoin="miter"/><path d="M236.46215,186.1377c-0.63485,0 -1.14953,-0.51467 -1.14953,-1.14951v-17.31467c0,-0.63485 0.51468,-1.14953 1.14953,-1.14953h7.11265c0.63485,0 1.14953,0.51468 1.14953,1.14953v17.31467c0,0.63485 -0.51468,1.14951 -1.14953,1.14951z" fill="#005aff" stroke="#000000" stroke-linecap="butt" stroke-linejoin="miter"/><path d="M239.40981,188.48165l-2.63898,10.42574l-4.28039,-1.11223l2.62964,-10.37972" fill="#692b00" stroke="#000000" stroke-linecap="round" stroke-linejoin="round"/><path d="M244.09865,186.85715l3.77465,10.02025l-4.12903,1.58423l-3.7891,-10.06494" fill="#692b00" stroke="#000000" stroke-linecap="round" stroke-linejoin="round"/><path d="M236.77922,199.01741l-8.79842,6.63049l-2.6599,-3.53028l8.8206,-6.65289" fill="#692b00" stroke="#000000" stroke-linecap="round" stroke-linejoin="round"/><path d="M247.25813,195.20795l3.89163,10.34018l-4.1361,1.55906l-3.8849,-10.30937" fill="#692b00" stroke="#000000" stroke-linecap="round" stroke-linejoin="round"/><path d="M248.36376,208.31834c-0.43909,0.14903 -0.91589,-0.08613 -1.06492,-0.52522l-0.57825,-1.70368c-0.14903,-0.43909 0.08613,-0.91588 0.52522,-1.06491l4.20244,-1.42634c0.43909,-0.14903 0.91589,0.08613 1.06492,0.52522l0.57825,1.70369c0.14903,0.43909 -0.08613,0.91588 -0.52522,1.06491z" fill="#001d69" stroke="#000000" stroke-linecap="butt" stroke-linejoin="miter"/><g stroke-linejoin="miter"><path d="M238.52061,188.26428v-1.51902h2.91485v1.51902z" fill="#692b00" stroke="none" stroke-linecap="butt"/><path d="M239.12149,188.10708h1.59364" fill="none" stroke="#000000" stroke-linecap="round"/></g><path d="M242.42533,155.77398c0,1.77762 -0.56615,3.21866 -1.26446,3.21866c-0.69836,0 -1.26446,-1.44103 -1.26446,-3.21866c0,-1.77762 0.5661,-3.21866 1.26446,-3.21866c0.69833,0 1.26446,1.44103 1.26446,3.21866z" fill="#000000" stroke="#000000" stroke-linecap="butt" stroke-linejoin="miter"/><path d="M246.90847,155.77398c0,1.77762 -0.56615,3.21866 -1.26448,3.21866c-0.69836,0 -1.26446,-1.44103 -1.26446,-3.21866c0,-1.77762 0.5661,-3.21866 1.26446,-3.21866c0.69833,0 1.26448,1.44103 1.26448,3.21866z" fill="#000000" stroke="#000000" stroke-linecap="butt" stroke-linejoin="miter"/><path d="M244.73317,161.7515h-3.16118" fill="none" stroke="#000000" stroke-linecap="round" stroke-linejoin="miter"/><g fill="#005aff" stroke="#000000" stroke-linecap="round" stroke-linejoin="round"><path d="M239.67054,168.78268l-1.99516,10.56784l-4.34051,-0.84784l1.98868,-10.52134"/><path d="M237.96993,177.76366l-2.04732,10.82519l-4.3431,-0.82185l2.04868,-10.85664"/></g><path d="M230.58363,188.33118c-0.14686,-1.65206 1.07334,-3.1104 2.7254,-3.25725c1.65206,-0.14688 3.1104,1.07334 3.25725,2.7254c0.14688,1.65206 -1.07334,3.11037 -2.7254,3.25725c-1.65206,0.14686 -3.11037,-1.07334 -3.25725,-2.7254z" fill="#ffffff" stroke="#000000" stroke-linecap="butt" stroke-linejoin="miter"/><path d="M224.53244,203.8919c-0.29121,-0.36087 -0.23472,-0.88948 0.12613,-1.18067l1.40013,-1.12984c0.36085,-0.29119 0.88946,-0.23473 1.18067,0.12613l2.78694,3.45364c0.29121,0.36087 0.23472,0.88948 -0.12613,1.18067l-1.40013,1.12984c-0.36085,0.29119 -0.88946,0.23473 -1.18067,-0.12613z" fill="#001d69" stroke="#000000" stroke-linecap="butt" stroke-linejoin="miter"/></g></g></svg>