<svg version="1.1" xmlns="http://www.w3.org/2000/svg" xmlns:xlink="http://www.w3.org/1999/xlink" width="488" height="367" viewBox="0,0,488,367"><defs><linearGradient x1="240" y1="-3.5" x2="240" y2="363.5" gradientUnits="userSpaceOnUse" id="color-1"><stop offset="0" stop-color="#404040"/><stop offset="1" stop-color="#000000"/></linearGradient></defs><g transform="translate(4,3.5)"><g stroke="none" stroke-miterlimit="10"><path d="M-4,363.5v-367h488v367z" fill="url(#color-1)" stroke-width="NaN"/><path d="M57.5,83.11725l-2.5,-51h76l-2.5,51z" fill="#000000" stroke-width="0"/><text transform="translate(61.35002,43.06711) scale(0.22127,0.25568)" font-size="40" xml:space="preserve" fill="#ff0000" stroke-width="1" font-family="Pixel" font-weight="normal" text-anchor="start"><tspan x="0" dy="0">CONTAINMENT</tspan></text><text transform="translate(73.2564,80.87963) scale(0.25568,0.25026)" font-size="40" xml:space="preserve" fill="#ff0000" stroke-width="1" font-family="Pixel" font-weight="normal" text-anchor="start"><tspan x="0" dy="0">BREACH</tspan></text><path d="M351.5,83.11725l-2.5,-51h76l-2.5,51z" fill="#000000" stroke-width="0"/><text transform="translate(355.10002,42.81711) scale(0.22127,0.25568)" font-size="40" xml:space="preserve" fill="#ff0000" stroke-width="1" font-family="Pixel" font-weight="normal" text-anchor="start"><tspan x="0" dy="0">CONTAINMENT</tspan></text><text transform="translate(367.2564,80.87963) scale(0.25568,0.25026)" font-size="40" xml:space="preserve" fill="#ff0000" stroke-width="1" font-family="Pixel" font-weight="normal" text-anchor="start"><tspan x="0" dy="0">BREACH</tspan></text><path d="M94.15,44.85l13.75,25.25h-27.5z" fill="#ff0000" stroke-width="0"/><text transform="translate(92.9,67.6) scale(0.5,0.5)" font-size="40" xml:space="preserve" fill="#000000" stroke-width="1" font-family="Pixel" font-weight="normal" text-anchor="start"><tspan x="0" dy="0">!</tspan></text><g><path d="M387.15,44.85l13.75,25.25h-27.5z" fill="#ff0000" stroke-width="0"/><text transform="translate(385.9,67.6) scale(0.5,0.5)" font-size="40" xml:space="preserve" fill="#000000" stroke-width="1" font-family="Pixel" font-weight="normal" text-anchor="start"><tspan x="0" dy="0">!</tspan></text></g></g></g></svg>