<svg version="1.1" xmlns="http://www.w3.org/2000/svg" xmlns:xlink="http://www.w3.org/1999/xlink" width="32.21139" height="62.21672" viewBox="0,0,32.21139,62.21672"><g transform="translate(-231.5422,-148.89168)"><g stroke-width="0.5" stroke-miterlimit="10"><g fill="#005aff" stroke="#000000" stroke-linecap="round" stroke-linejoin="round"><path d="M244.53005,169.56892l-4.35577,4.46973l-4.34048,0.84784l4.34927,-4.51623"/><path d="M239.78339,172.54393l1.85347,9.78297l-4.05031,1.79791l-2.04732,-10.82519"/></g><path d="M239.91233,186.44614c-1.65206,-0.14688 -2.96989,-1.50759 -2.82303,-3.15965c0.14688,-1.65206 1.60519,-2.87228 3.25725,-2.7254c1.65206,0.14686 2.96989,1.60519 2.823,3.25725c-0.14686,1.65206 -1.60517,2.77464 -3.25723,2.62779z" fill="#ffffff" stroke="#000000" stroke-linecap="butt" stroke-linejoin="miter"/><path d="M236.43106,190.03015c-0.61864,0 -1.12015,-0.51468 -1.12015,-1.14953v-1.92955c0,-0.63485 0.5015,-1.14951 1.12015,-1.14951h7.16111c0.61864,0 1.12016,0.51467 1.12016,1.14951v1.92955c0,0.63485 -0.50152,1.14953 -1.12016,1.14953z" fill="#692b00" stroke="#000000" stroke-linecap="butt" stroke-linejoin="miter"/><path d="M239.74307,169.90496c-0.5026,0 -0.91006,-0.51467 -0.91006,-1.14951v-3.95149c0,-0.63485 0.40745,-1.14953 0.91006,-1.14953h0.91001c0.5026,0 0.91006,0.51468 0.91006,1.14953v3.95149c0,0.63485 -0.40745,1.14951 -0.91006,1.14951z" fill="#ffffff" stroke="#000000" stroke-linecap="butt" stroke-linejoin="miter"/><path d="M231.7922,157.54755c0,-4.64243 3.76344,-8.40587 8.40587,-8.40587c4.64243,0 8.40587,3.76344 8.40587,8.40587c0,4.64243 -3.76344,8.40587 -8.40587,8.40587c-4.64243,0 -8.40587,-3.76344 -8.40587,-8.40587z" fill="#ffffff" stroke="#000000" stroke-linecap="butt" stroke-linejoin="miter"/><path d="M236.46214,187.57886c-0.63485,0 -1.14953,-0.51467 -1.14953,-1.14951v-17.31467c0,-0.63485 0.51468,-1.14953 1.14953,-1.14953h7.11265c0.63485,0 1.14953,0.51468 1.14953,1.14953v17.31467c0,0.63485 -0.51468,1.14951 -1.14953,1.14951z" fill="#005aff" stroke="#000000" stroke-linecap="butt" stroke-linejoin="miter"/><path d="M239.61225,189.13106l-0.35318,10.74875l-4.41915,-0.17311l0.35388,-10.70179" fill="#692b00" stroke="#000000" stroke-linecap="round" stroke-linejoin="round"/><path d="M244.59548,189.0049l0.35388,10.70179l-4.41913,0.17311l-0.3532,-10.74875" fill="#692b00" stroke="#000000" stroke-linecap="round" stroke-linejoin="round"/><path d="M239.30713,198.26654l-0.36534,11.011l-4.41773,-0.147l0.36184,-11.04233" fill="#692b00" stroke="#000000" stroke-linecap="round" stroke-linejoin="round"/><path d="M244.90338,198.08825l0.36183,11.04233l-4.41773,0.147l-0.36536,-11.011" fill="#692b00" stroke="#000000" stroke-linecap="round" stroke-linejoin="round"/><path d="M241.73668,210.8584c-0.46369,0 -0.83961,-0.37592 -0.83961,-0.83961v-1.79914c0,-0.46369 0.37592,-0.83961 0.83961,-0.83961h4.4379c0.46369,0 0.83961,0.37592 0.83961,0.83961v1.79914c0,0.46369 -0.37592,0.83961 -0.83961,0.83961z" fill="#001d69" stroke="#000000" stroke-linecap="butt" stroke-linejoin="miter"/><g stroke-linejoin="miter"><path d="M238.5206,189.70545v-1.51902h2.91485v1.51902z" fill="#692b00" stroke="none" stroke-linecap="butt"/><path d="M240.71512,189.54823h-1.59364" fill="none" stroke="#000000" stroke-linecap="round"/></g><path d="M243.42379,157.21508c0,1.77762 -0.44006,3.21866 -0.98284,3.21866c-0.54282,0 -0.98284,-1.44103 -0.98284,-3.21866c0,-1.77762 0.44002,-3.21866 0.98284,-3.21866c0.5428,0 0.98284,1.44103 0.98284,3.21866z" fill="#000000" stroke="#000000" stroke-linecap="butt" stroke-linejoin="miter"/><path d="M246.90846,157.21508c0,1.77762 -0.44006,3.21866 -0.98286,3.21866c-0.54282,0 -0.98284,-1.44103 -0.98284,-3.21866c0,-1.77762 0.44002,-3.21866 0.98284,-3.21866c0.5428,0 0.98286,1.44103 0.98286,3.21866z" fill="#000000" stroke="#000000" stroke-linecap="butt" stroke-linejoin="miter"/><path d="M242.76051,163.1926h2.45713" fill="none" stroke="#000000" stroke-linecap="round" stroke-linejoin="miter"/><path d="M235.56981,210.8584c-0.46371,0 -0.83961,-0.37592 -0.83961,-0.83961v-1.79914c0,-0.46369 0.3759,-0.83961 0.83961,-0.83961h4.43787c0.46371,0 0.83961,0.37592 0.83961,0.83961v1.79914c0,0.46369 -0.3759,0.83961 -0.83961,0.83961z" fill="#001d69" stroke="#000000" stroke-linecap="butt" stroke-linejoin="miter"/><g fill="#0059ff" stroke="#000000" stroke-linecap="round" stroke-linejoin="round"><path d="M234.89297,167.93455l14.92544,-0.15903l0.19919,4.41805l-14.87872,0.15438"/><path d="M249.39958,167.73162l9.6551,-0.01083l0.22506,4.41445l-9.68598,0.01692"/></g><path d="M257.61545,170.38455c-0.32729,-1.62596 0.72549,-3.20941 2.35145,-3.53669c1.62596,-0.32731 3.20941,0.72549 3.53669,2.35145c0.32731,1.62596 -0.72549,3.20938 -2.35145,3.53669c-1.62596,0.32729 -3.20938,-0.72549 -3.53669,-2.35145z" fill="#ffffff" stroke="#000000" stroke-linecap="butt" stroke-linejoin="miter"/></g></g></svg>