<svg version="1.1" xmlns="http://www.w3.org/2000/svg" xmlns:xlink="http://www.w3.org/1999/xlink" width="133.10779" height="144.35725" viewBox="0,0,133.10779,144.35725"><g transform="translate(-173.87,-107.91468)"><g fill="#ffffff" stroke="none" stroke-width="0.5" stroke-miterlimit="10"><path d="M306.27902,109.92863c1.11804,0.55902 0.55901,1.67705 0.55901,1.67705l-0.1691,0.33338l-0.61496,1.43354l-0.81594,1.63308l-0.74568,1.47467l-0.37703,1.53198l-0.94098,2.5058l-2.46809,1.50807l-0.98506,-2.62551l-0.51922,-0.99501c0,0 -0.15793,-0.31587 -0.13801,-0.69576c-0.10443,-0.17487 -0.14585,-0.31985 -0.14585,-0.31985l-0.33265,-1.21874l-0.32261,-0.66135l-0.27637,-0.2058l0.09895,0.59449l-0.83497,1.88148l-1.73044,1.91651l-1.71803,-1.89099l-0.5631,-1.1316l-0.71138,-1.06753l-1.32029,-1.5059l-1.12085,-1.12257l-0.29803,-0.48837l-0.39462,0.40987l-0.93588,0.75611l-0.95864,0.56797l-0.36546,1.12203l-0.16613,1.37864l0.00242,1.52233l-0.70852,2.72663l-2.34368,-0.96799l-1.6,-1.4l-0.93562,-0.74961l-0.96787,-0.66588l-0.16918,-0.21565l-0.01114,0.0534l0.12345,0.19589c0,0 -0.06054,0.42381 -0.35879,0.73995l-0.30032,0.90044l-0.5673,1.4925l-0.1721,1.25625l-0.21019,1.66361l-1.38131,2.59574l-2.36397,-1.97529l-1.58661,-1.38579l-0.87293,-1.08331l-0.8,-1l-0.72264,-0.91209l-0.74156,-0.8421l-0.20096,0.1667l-1.63641,1.4542l-1.67718,-1.96923l-0.33715,-1.07005l-0.95413,-1.12412l-0.635,-1.25677l-0.71138,-1.06753l-1.04512,-1.28475l-0.87978,-0.2575l-0.33267,0.39488l-0.62425,1.13099l-1.74242,2.69299l-2.01706,-1.53386l-0.55866,-1.13596l-0.22165,-0.13057l-0.7779,0.71767l-0.84129,0.83871l-0.70336,1.06468l-1.898,1.99235l-1.60667,-1.75808l-0.94707,-1.12144l-1.62343,-0.86993l-1.41214,-1.06252l-0.2446,0.5961l-0.69759,0.86899l-0.74852,1.31753l-0.74417,1.29004l-1.25395,1.90634l-2.32084,-1.48515l-0.94722,-0.75532l-0.77391,-0.65594l-1.10962,-0.27181l-0.77659,0.06969l-0.59234,0.67445l-0.64379,0.9567l-0.36804,1.12917l-1.55462,1.9555l-2.23531,-1.53307l-0.55966,-1.34383l-0.92663,-0.71223l-0.46845,-0.94263h-0.42036l-0.19346,0.46013l0.04617,1.17417l-1.45544,2.89952l-2.02092,-1.93327l-0.65006,-0.81876l-1.02375,-0.82441l-0.96188,-1.36146l-0.90036,-0.58548l-0.92999,-0.46655l-0.59206,0.41303l-0.35322,0.81933l-0.46285,1.32995l-1.34503,1.59396l-2.68369,0.72664l-1.06519,-2.18551l-0.30884,-1.17003l-0.58193,-0.69836l-0.99151,-0.82887l-0.64766,-0.62523l-0.09207,0.55997l-0.64874,0.75912l-0.28481,1.3964l-0.00868,1.66384l-1.27983,2.19859l-2.28772,-1.16773l-1.11645,-1.75308l-0.78992,-1.18464l-0.76896,-1.15556l-0.72239,-0.90417l-0.79948,-0.81959l-1.06934,-0.5802l-0.93908,0.18865l-1.20754,0.34246l-0.8673,0.40712l-0.48782,0.62527l-0.4,1.2l-0.93531,1.19994l-1.36641,1.56624l-2.43048,1.06433l-1.57485,-1.49005l-0.90351,-1.36794l-0.6658,-1.75271l-0.59007,-1.77294l-0.59158,-1.37845l-0.52058,-1.43736l-0.44964,-0.69643l-0.21264,-0.06867l-0.07921,0.55491l-0.36635,1.68919l-0.40415,1.41591l-0.39478,1.57984l-0.38393,1.52635l-0.2,1.6l-0.4,1.6l-0.18116,1.44814l-0.9604,2.53889l-2.00522,-1.85755l-0.7631,-1.5316l-0.64864,-0.99193l-0.14462,-0.5918l-0.08088,0.6777l-1.53904,1.02177l-1.67201,0.42921l-1.3465,0.6442l-1.68719,0.03344c0,0 -1.25,0 -1.25,-1.25c0,-1.25 1.25,-1.25 1.25,-1.25l1.11281,0.03344l1.05351,-0.5558l1.52799,-0.37078l0.86096,-0.57823l1.51912,-1.32229l2.25538,1.40819l0.46932,0.69461l0.17216,-0.68866l0.2,-1.6l0.41607,-1.67365l0.40521,-1.62016l0.39586,-1.38409l0.43364,-1.9108l1.1208,-1.84509l2.58736,-0.06867l1.55036,1.70357l0.67942,1.76264l0.60843,1.42155l0.60993,1.82706l0.53421,1.44729l0.69648,1.03207l0.02516,0.50995l0.36951,-0.53567l1.03359,-1.23376l0.66469,-0.80006l0.4,-1.2l1.11218,-1.37472l1.53269,-0.79289l1.59246,-0.45755l1.86093,-0.21134l2.13066,1.01981l1.20052,1.1804l0.87762,1.09584l0.83104,1.24444l0.81008,1.21536l0.10751,0.17607l-0.00019,-0.03446l0.51519,-2.2036l0.95126,-1.24088l1.50793,-1.44003l2.55234,0.97477l1.40849,1.17113l1.01807,1.30164l0.48191,1.59927l0.51534,-0.63421l0.33715,-1.07005l0.84678,-1.58066l2.20794,-1.18697l2.27,0.73345l1.49964,1.01452l1.03812,1.43854l0.89004,0.7071l0.00596,-0.20986l1.40655,-1.93986h2.77964l1.13155,1.45736l1.07337,0.88778l0.31189,0.70927l0.17046,-0.50151l0.95622,-1.4433l1.40766,-1.32555l2.02342,-0.3303l2.09038,0.52819l1.22609,0.94406l0.95926,0.76964l0.57457,-1.01373l0.85148,-1.48247l0.90241,-1.13101l1.7554,-1.4039l2.96895,1.34707l1.99549,1.12049l0.99344,1.14771l0.65147,-0.9702l1.15871,-1.16129l2.0221,-1.28233l2.17836,0.66943l0.49793,0.79568l0.95968,-1.64152l1.66733,-1.20512l2.72022,0.54251l1.75487,1.91525l0.88863,1.33247l0.56499,1.14323l1.04587,1.27588l0.25315,0.72741l1.89514,-0.54578l2.05844,1.5579l0.87735,1.08791l0.8,1l0.72707,0.91669l1.19054,1.04356l0.06736,-0.54529l0.2279,-1.54375l0.6327,-1.7075l0.39248,-1.17812l0.16013,-0.84986c0,0 0.10921,-0.54604 0.54629,-0.83633l0.18195,-0.55584l2.80318,0.29417l1.43212,0.93411l1.06438,0.85039l0.54936,0.48069l0.00086,-0.59972l0.23388,-1.82135l0.83454,-2.07798l1.44135,-1.03202l1.06412,-0.8439l2.00538,-0.79013l1.70196,1.11164l1.27916,1.27743l1.47971,1.6941l0.88862,1.33247l0.08716,0.17358l0.26629,-0.59818l0.89895,-1.8055l2.92363,0.19419l1.2774,1.73865l0.46735,1.58127c0,0 0.05765,0.20179 0.04303,0.46362c0.04873,0.07202 0.0731,0.12076 0.0731,0.12076l0.1655,0.34155l0.12114,-0.3482l0.42297,-1.66802l0.85432,-1.72534l0.78406,-1.56692l0.58504,-1.36646l0.2309,-0.46662c0,0 0.55902,-1.11804 1.67705,-0.55902z"></path><path d="M306.27902,236.32863c1.11804,0.55901 0.55901,1.67705 0.55901,1.67705l-0.1691,0.33338l-0.61496,1.43354l-0.81594,1.63308l-0.74568,1.47467l-0.37703,1.53198l-0.94098,2.50581l-2.46809,1.50806l-0.98506,-2.6255l-0.51922,-0.99502c0,0 -0.15793,-0.31586 -0.13801,-0.69576c-0.10443,-0.17487 -0.14585,-0.31986 -0.14585,-0.31986l-0.33265,-1.21873l-0.32261,-0.66135l-0.27637,-0.20581l0.09895,0.5945l-0.83497,1.88148l-1.73044,1.91652l-1.71803,-1.89099l-0.5631,-1.13161l-0.71138,-1.06753l-1.32029,-1.5059l-1.12085,-1.12257l-0.29803,-0.48836l-0.39462,0.40987l-0.93588,0.7561l-0.95864,0.56798l-0.36546,1.12202l-0.16613,1.37865l0.00242,1.52233l-0.70852,2.72663l-2.34368,-0.968l-1.6,-1.4l-0.93562,-0.74961l-0.96787,-0.66588l-0.16918,-0.21565l-0.01114,0.05339l0.12345,0.19589c0,0 -0.06054,0.42381 -0.35879,0.73994l-0.30032,0.90045l-0.5673,1.49249l-0.1721,1.25626l-0.21019,1.66361l-1.38131,2.59574l-2.36397,-1.97529l-1.58661,-1.38579l-0.87293,-1.08331l-0.8,-1l-0.72264,-0.91209l-0.74156,-0.8421l-0.20096,0.1667l-1.63641,1.4542l-1.67718,-1.96923l-0.33715,-1.07005l-0.95413,-1.12412l-0.635,-1.25678l-0.71138,-1.06753l-1.04512,-1.28474l-0.87978,-0.2575l-0.33267,0.39487l-0.62425,1.131l-1.74242,2.69299l-2.01706,-1.53386l-0.55866,-1.13596l-0.22165,-0.13057l-0.7779,0.71767l-0.84129,0.83871l-0.70336,1.06468l-1.898,1.99236l-1.60667,-1.75809l-0.94707,-1.12144l-1.62343,-0.86993l-1.41214,-1.06252l-0.2446,0.59611l-0.69759,0.86899l-0.74852,1.31753l-0.74417,1.29004l-1.25395,1.90634l-2.32084,-1.48515l-0.94722,-0.75532l-0.77391,-0.65594l-1.10962,-0.27181l-0.77659,0.06969l-0.59234,0.67445l-0.64379,0.9567l-0.36804,1.12917l-1.55462,1.9555l-2.23531,-1.53307l-0.55966,-1.34383l-0.92663,-0.71222l-0.46845,-0.94264h-0.42036l-0.19346,0.46014l0.04617,1.17417l-1.45544,2.89952l-2.02092,-1.93327l-0.65006,-0.81876l-1.02375,-0.82441l-0.96188,-1.36145l-0.90036,-0.58549l-0.92999,-0.46655l-0.59206,0.41304l-0.35322,0.81933l-0.46285,1.32995l-1.34503,1.59396l-2.68369,0.72664l-1.06519,-2.18551l-0.30884,-1.17003l-0.58193,-0.69837l-0.99151,-0.82887l-0.64766,-0.62523l-0.09207,0.55997l-0.64874,0.75913l-0.28481,1.3964l-0.00868,1.66383l-1.27983,2.19859l-2.28772,-1.16773l-1.11645,-1.75308l-0.78992,-1.18463l-0.76896,-1.15556l-0.72239,-0.90417l-0.79948,-0.81959l-1.06934,-0.5802l-0.93908,0.18866l-1.20754,0.34246l-0.8673,0.40711l-0.48782,0.62527l-0.4,1.2l-0.93531,1.19994l-1.36641,1.56624l-2.43048,1.06433l-1.57485,-1.49005l-0.90351,-1.36794l-0.6658,-1.75271l-0.59007,-1.77294l-0.59158,-1.37845l-0.52058,-1.43736l-0.44964,-0.69643l-0.21264,-0.06867l-0.07921,0.55491l-0.36635,1.68919l-0.40415,1.41591l-0.39478,1.57984l-0.38393,1.52635l-0.2,1.6l-0.4,1.6l-0.18116,1.44815l-0.9604,2.53889l-2.00522,-1.85754l-0.7631,-1.53161l-0.64864,-0.99193l-0.14462,-0.5918l-0.08088,0.6777l-1.53904,1.02177l-1.67201,0.42921l-1.3465,0.6442l-1.68719,0.03344c0,0 -1.25,0 -1.25,-1.25c0,-1.25 1.25,-1.25 1.25,-1.25l1.11281,0.03344l1.05351,-0.55579l1.52799,-0.37079l0.86096,-0.57824l1.51912,-1.32229l2.25538,1.4082l0.46932,0.69461l0.17216,-0.68866l0.2,-1.6l0.41607,-1.67364l0.40521,-1.62016l0.39586,-1.38409l0.43364,-1.91081l1.1208,-1.84509l2.58736,-0.06867l1.55036,1.70357l0.67942,1.76264l0.60843,1.42155l0.60993,1.82706l0.53421,1.44728l0.69648,1.03206l0.02516,0.50995l0.36951,-0.53566l1.03359,-1.23376l0.66469,-0.80006l0.4,-1.2l1.11218,-1.37473l1.53269,-0.79289l1.59246,-0.45754l1.86093,-0.21135l2.13066,1.01981l1.20052,1.1804l0.87762,1.09583l0.83104,1.24444l0.81008,1.21536l0.10751,0.17607l-0.00019,-0.03446l0.51519,-2.2036l0.95126,-1.24087l1.50793,-1.44003l2.55234,0.97477l1.40849,1.17113l1.01807,1.30164l0.48191,1.59927l0.51534,-0.63421l0.33715,-1.07005l0.84678,-1.58067l2.20794,-1.18696l2.27,0.73345l1.49964,1.01452l1.03812,1.43855l0.89004,0.7071l0.00596,-0.20986l1.40655,-1.93986h2.77964l1.13155,1.45736l1.07337,0.88778l0.31189,0.70928l0.17046,-0.50151l0.95622,-1.44329l1.40766,-1.32555l2.02342,-0.3303l2.09038,0.52819l1.22609,0.94406l0.95926,0.76964l0.57457,-1.01373l0.85148,-1.48247l0.90241,-1.131l1.7554,-1.4039l2.96895,1.34707l1.99549,1.12049l0.99344,1.14771l0.65147,-0.9702l1.15871,-1.16129l2.0221,-1.28233l2.17836,0.66943l0.49793,0.79568l0.95968,-1.64152l1.66733,-1.20513l2.72022,0.54251l1.75487,1.91526l0.88863,1.33247l0.56499,1.14323l1.04587,1.27588l0.25315,0.7274l1.89514,-0.54578l2.05844,1.55791l0.87735,1.08791l0.8,1l0.72707,0.91669l1.19054,1.04357l0.06736,-0.54529l0.2279,-1.54375l0.6327,-1.7075l0.39248,-1.17812l0.16013,-0.84986c0,0 0.10921,-0.54604 0.54629,-0.83632l0.18195,-0.55584l2.80318,0.29417l1.43212,0.93411l1.06438,0.85039l0.54936,0.48068l0.00086,-0.59972l0.23388,-1.82136l0.83454,-2.07797l1.44135,-1.03203l1.06412,-0.8439l2.00538,-0.79012l1.70196,1.11163l1.27916,1.27743l1.47971,1.6941l0.88862,1.33247l0.08716,0.17359l0.26629,-0.59818l0.89895,-1.80551l2.92363,0.1942l1.2774,1.73865l0.46735,1.58126c0,0 0.05765,0.20179 0.04303,0.46363c0.04873,0.07202 0.0731,0.12076 0.0731,0.12076l0.1655,0.34155l0.12114,-0.34821l0.42297,-1.66801l0.85432,-1.72534l0.78406,-1.56692l0.58504,-1.36647l0.2309,-0.46661c0,0 0.55902,-1.11803 1.67705,-0.55902z"></path></g></g></svg>