<svg version="1.1" xmlns="http://www.w3.org/2000/svg" xmlns:xlink="http://www.w3.org/1999/xlink" width="133.10779" height="144.35725" viewBox="0,0,133.10779,144.35725"><g transform="translate(-173.87,-107.91468)"><g fill="#ffffff" stroke="none" stroke-width="0.5" stroke-miterlimit="10"><path d="M304.60197,249.69896l-0.2309,-0.46662l-0.58504,-1.36646l-0.78406,-1.56692l-0.85432,-1.72533l-0.42297,-1.66802l-0.12114,-0.34821l-0.1655,0.34156c0,0 -0.02437,0.04873 -0.0731,0.12076c0.01462,0.26183 -0.04303,0.46363 -0.04303,0.46363l-0.46735,1.58126l-1.2774,1.73865l-2.92363,0.1942l-0.89895,-1.80551l-0.26629,-0.59818l-0.08716,0.17358l-0.88862,1.33247l-1.47971,1.6941l-1.27916,1.27743l-1.70196,1.11163l-2.00538,-0.79012l-1.06412,-0.8439l-1.44135,-1.03203l-0.83454,-2.07797l-0.23388,-1.82136l-0.00086,-0.59972l-0.54936,0.48069l-1.06438,0.85039l-1.43212,0.93411l-2.80318,0.29417l-0.18195,-0.55584c-0.43709,-0.29029 -0.54629,-0.83633 -0.54629,-0.83633l-0.16013,-0.84986l-0.39248,-1.17812l-0.6327,-1.70751l-0.2279,-1.54375l-0.06736,-0.54529l-1.19054,1.04356l-0.72707,0.91669l-0.8,1l-0.87735,1.08791l-2.05844,1.5579l-1.89514,-0.54578l-0.25315,0.7274l-1.04587,1.27588l-0.56499,1.14322l-0.88863,1.33247l-1.75487,1.91526l-2.72022,0.54251l-1.66733,-1.20513l-0.95968,-1.64152l-0.49793,0.79568l-2.17836,0.66943l-2.0221,-1.28233l-1.15871,-1.16129l-0.65147,-0.9702l-0.99344,1.14771l-1.99549,1.12049l-2.96895,1.34707l-1.7554,-1.4039l-0.90241,-1.131l-0.85148,-1.48247l-0.57457,-1.01373l-0.95926,0.76964l-1.22609,0.94406l-2.09038,0.5282l-2.02341,-0.3303l-1.40766,-1.32555l-0.95622,-1.44329l-0.17046,-0.50151l-0.31189,0.70927l-1.07337,0.88777l-1.13155,1.45737h-2.77964l-1.40655,-1.93986l-0.00596,-0.20986l-0.89004,0.7071l-1.03812,1.43855l-1.49964,1.01451l-2.27,0.73345l-2.20794,-1.18696l-0.84678,-1.58067l-0.33715,-1.07005l-0.51534,-0.63421l-0.48191,1.59927l-1.01807,1.30164l-1.40849,1.17113l-2.55234,0.97477l-1.50793,-1.44003l-0.95126,-1.24087l-0.51519,-2.2036l0.00019,-0.03446l-0.10751,0.17607l-0.81008,1.21536l-0.83104,1.24444l-0.87762,1.09584l-1.20052,1.1804l-2.13066,1.01981l-1.86093,-0.21134l-1.59246,-0.45754l-1.53269,-0.79289l-1.11218,-1.37473l-0.4,-1.2l-0.66469,-0.80006l-1.03359,-1.23376l-0.36951,-0.53567l-0.02516,0.50994l-0.69648,1.03207l-0.53421,1.44728l-0.60993,1.82706l-0.60843,1.42155l-0.67942,1.76264l-1.55036,1.70357l-2.58736,-0.06867l-1.1208,-1.84509l-0.43364,-1.9108l-0.39586,-1.38409l-0.40521,-1.62016l-0.41607,-1.67365l-0.2,-1.6l-0.17216,-0.68866l-0.46932,0.69461l-2.25538,1.40819l-1.51912,-1.32229l-0.86096,-0.57823l-1.52799,-0.37078l-1.05351,-0.5558l-1.11281,0.03344c0,0 -1.25,0 -1.25,-1.25c0,-1.25 1.25,-1.25 1.25,-1.25l1.68719,0.03344l1.3465,0.6442l1.67201,0.42921l1.53904,1.02177l0.08088,0.6777l0.14462,-0.5918l0.64864,-0.99194l0.7631,-1.5316l2.00522,-1.85754l0.9604,2.53889l0.18116,1.44815l0.4,1.6l0.2,1.6l0.38393,1.52636l0.39478,1.57984l0.40415,1.41591l0.36635,1.68919l0.07921,0.55491l0.21264,-0.06867l0.44964,-0.69643l0.52058,-1.43736l0.59158,-1.37845l0.59007,-1.77294l0.6658,-1.75271l0.90351,-1.36793l1.57485,-1.49006l2.43048,1.06433l1.36641,1.56624l0.93531,1.19994l0.4,1.2l0.48782,0.62527l0.8673,0.40711l1.20754,0.34246l0.93908,0.18865l1.06934,-0.5802l0.79948,-0.81959l0.72239,-0.90417l0.76896,-1.15556l0.78992,-1.18463l1.11645,-1.75308l2.28772,-1.16772l1.27983,2.19859l0.00868,1.66384l0.28481,1.3964l0.64874,0.75912l0.09207,0.55997l0.64766,-0.62523l0.99151,-0.82887l0.58193,-0.69836l0.30884,-1.17004l1.06519,-2.18551l2.68369,0.72664l1.34503,1.59396l0.46285,1.32995l0.35322,0.81933l0.59206,0.41304l0.92999,-0.46655l0.90036,-0.58548l0.96188,-1.36146l1.02375,-0.82441l0.65006,-0.81876l2.02092,-1.93327l1.45544,2.89952l-0.04617,1.17417l0.19346,0.46013h0.42036l0.46845,-0.94263l0.92663,-0.71222l0.55966,-1.34383l2.23531,-1.53307l1.55462,1.9555l0.36804,1.12917l0.64379,0.9567l0.59234,0.67445l0.77659,0.06969l1.10962,-0.27181l0.77391,-0.65594l0.94722,-0.75532l2.32084,-1.48515l1.25395,1.90634l0.74417,1.29004l0.74852,1.31753l0.69759,0.869l0.2446,0.5961l1.41214,-1.06252l1.62343,-0.86993l0.94707,-1.12144l1.60667,-1.75808l1.898,1.99235l0.70336,1.06468l0.84129,0.83871l0.7779,0.71767l0.22165,-0.13057l0.55866,-1.13596l2.01706,-1.53385l1.74242,2.69299l0.62425,1.131l0.33267,0.39488l0.87978,-0.2575l1.04512,-1.28475l0.71138,-1.06753l0.635,-1.25678l0.95413,-1.12412l0.33715,-1.07005l1.67718,-1.96923l1.63641,1.4542l0.20096,0.1667l0.74156,-0.8421l0.72265,-0.91209l0.8,-1l0.87293,-1.08331l1.58661,-1.38579l2.36397,-1.97529l1.38131,2.59574l0.21019,1.66361l0.1721,1.25625l0.5673,1.49249l0.30032,0.90044c0.29825,0.31614 0.35879,0.73995 0.35879,0.73995l-0.12345,0.19589l0.01114,0.0534l0.16918,-0.21565l0.96787,-0.66588l0.93562,-0.74961l1.6,-1.4l2.34368,-0.968l0.70852,2.72663l-0.00242,1.52233l0.16613,1.37865l0.36546,1.12203l0.95864,0.56797l0.93588,0.7561l0.39462,0.40987l0.29803,-0.48836l1.12085,-1.12257l1.32029,-1.5059l0.71138,-1.06753l0.5631,-1.1316l1.71803,-1.89099l1.73044,1.91652l0.83497,1.88148l-0.09895,0.59449l0.27637,-0.2058l0.32261,-0.66135l0.33265,-1.21873c0,0 0.04143,-0.14499 0.14585,-0.31986c-0.01992,-0.37989 0.13801,-0.69576 0.13801,-0.69576l0.51922,-0.99501l0.98506,-2.62551l2.46809,1.50807l0.94098,2.5058l0.37703,1.53198l0.74568,1.47467l0.81594,1.63308l0.61496,1.43354l0.1691,0.33338c0,0 0.55902,1.11804 -0.55901,1.67705c-1.11804,0.55901 -1.67705,-0.55902 -1.67705,-0.55902z"></path><path d="M304.60197,123.29896l-0.2309,-0.46661l-0.58504,-1.36647l-0.78406,-1.56692l-0.85432,-1.72533l-0.42297,-1.66802l-0.12114,-0.3482l-0.1655,0.34155c0,0 -0.02437,0.04873 -0.0731,0.12076c0.01462,0.26183 -0.04303,0.46363 -0.04303,0.46363l-0.46735,1.58127l-1.2774,1.73865l-2.92363,0.1942l-0.89895,-1.8055l-0.26629,-0.59818l-0.08716,0.17359l-0.88862,1.33247l-1.47971,1.6941l-1.27916,1.27743l-1.70196,1.11164l-2.00538,-0.79013l-1.06412,-0.8439l-1.44135,-1.03202l-0.83454,-2.07798l-0.23388,-1.82136l-0.00086,-0.59972l-0.54936,0.48068l-1.06438,0.85039l-1.43212,0.93411l-2.80318,0.29417l-0.18195,-0.55584c-0.43709,-0.29029 -0.54629,-0.83633 -0.54629,-0.83633l-0.16013,-0.84986l-0.39248,-1.17812l-0.6327,-1.7075l-0.2279,-1.54375l-0.06736,-0.5453l-1.19054,1.04357l-0.72707,0.91669l-0.8,1l-0.87735,1.08791l-2.05844,1.55791l-1.89514,-0.54578l-0.25315,0.72741l-1.04587,1.27588l-0.56499,1.14323l-0.88863,1.33247l-1.75487,1.91525l-2.72022,0.54251l-1.66733,-1.20512l-0.95968,-1.64152l-0.49793,0.79568l-2.17836,0.66943l-2.0221,-1.28233l-1.15871,-1.16129l-0.65147,-0.9702l-0.99344,1.14771l-1.99549,1.12049l-2.96895,1.34707l-1.7554,-1.4039l-0.90241,-1.131l-0.85148,-1.48247l-0.57457,-1.01373l-0.95926,0.76964l-1.22609,0.94406l-2.09038,0.52819l-2.02341,-0.3303l-1.40766,-1.32555l-0.95622,-1.44329l-0.17046,-0.50151l-0.31189,0.70927l-1.07337,0.88778l-1.13155,1.45736h-2.77964l-1.40655,-1.93986l-0.00596,-0.20986l-0.89004,0.70711l-1.03812,1.43854l-1.49964,1.01452l-2.27,0.73345l-2.20794,-1.18697l-0.84678,-1.58067l-0.33715,-1.07005l-0.51534,-0.63421l-0.48191,1.59927l-1.01807,1.30164l-1.40849,1.17113l-2.55234,0.97477l-1.50793,-1.44003l-0.95126,-1.24088l-0.51519,-2.2036l0.00019,-0.03446l-0.10751,0.17607l-0.81008,1.21536l-0.83104,1.24444l-0.87762,1.09584l-1.20052,1.1804l-2.13066,1.01981l-1.86093,-0.21134l-1.59246,-0.45755l-1.53269,-0.79289l-1.11218,-1.37473l-0.4,-1.2l-0.66469,-0.80006l-1.03359,-1.23376l-0.36951,-0.53567l-0.02516,0.50995l-0.69648,1.03206l-0.53421,1.44728l-0.60993,1.82706l-0.60843,1.42155l-0.67942,1.76264l-1.55036,1.70357l-2.58736,-0.06867l-1.1208,-1.84509l-0.43364,-1.9108l-0.39586,-1.38409l-0.40521,-1.62016l-0.41607,-1.67364l-0.2,-1.6l-0.17216,-0.68866l-0.46932,0.69461l-2.25538,1.4082l-1.51912,-1.32229l-0.86096,-0.57824l-1.52799,-0.37079l-1.05351,-0.55579l-1.11281,0.03344c0,0 -1.25,0 -1.25,-1.25c0,-1.25 1.25,-1.25 1.25,-1.25l1.68719,0.03344l1.3465,0.6442l1.67201,0.42921l1.53904,1.02177l0.08088,0.6777l0.14462,-0.5918l0.64864,-0.99193l0.7631,-1.53161l2.00522,-1.85754l0.9604,2.53889l0.18116,1.44815l0.4,1.6l0.2,1.6l0.38393,1.52636l0.39478,1.57984l0.40415,1.41591l0.36635,1.6892l0.07921,0.55491l0.21264,-0.06867l0.44964,-0.69643l0.52058,-1.43736l0.59158,-1.37845l0.59007,-1.77294l0.6658,-1.75271l0.90351,-1.36793l1.57485,-1.49006l2.43048,1.06433l1.36641,1.56624l0.93531,1.19994l0.4,1.2l0.48782,0.62527l0.8673,0.40712l1.20754,0.34246l0.93908,0.18865l1.06934,-0.5802l0.79948,-0.81959l0.72239,-0.90417l0.76896,-1.15556l0.78992,-1.18464l1.11645,-1.75308l2.28772,-1.16772l1.27983,2.19859l0.00868,1.66384l0.28481,1.3964l0.64874,0.75912l0.09207,0.55997l0.64766,-0.62523l0.99151,-0.82887l0.58193,-0.69836l0.30884,-1.17004l1.06519,-2.18551l2.68369,0.72664l1.34503,1.59396l0.46285,1.32995l0.35322,0.81933l0.59206,0.41304l0.92999,-0.46655l0.90036,-0.58548l0.96188,-1.36146l1.02375,-0.82441l0.65006,-0.81876l2.02092,-1.93328l1.45544,2.89953l-0.04617,1.17416l0.19346,0.46014h0.42036l0.46845,-0.94263l0.92663,-0.71223l0.55966,-1.34383l2.23531,-1.53307l1.55462,1.9555l0.36804,1.12917l0.64379,0.9567l0.59234,0.67445l0.77659,0.06969l1.10962,-0.27181l0.77391,-0.65594l0.94722,-0.75532l2.32084,-1.48515l1.25395,1.90634l0.74417,1.29004l0.74852,1.31753l0.69759,0.869l0.2446,0.5961l1.41214,-1.06252l1.62343,-0.86993l0.94707,-1.12144l1.60667,-1.75809l1.898,1.99236l0.70336,1.06468l0.84129,0.83871l0.7779,0.71767l0.22165,-0.13057l0.55866,-1.13596l2.01706,-1.53385l1.74242,2.69299l0.62425,1.131l0.33267,0.39487l0.87978,-0.25749l1.04512,-1.28475l0.71138,-1.06753l0.635,-1.25677l0.95413,-1.12412l0.33715,-1.07005l1.67718,-1.96923l1.63641,1.4542l0.20096,0.1667l0.74156,-0.8421l0.72265,-0.91209l0.8,-1l0.87293,-1.08331l1.58661,-1.38579l2.36397,-1.97529l1.38131,2.59574l0.21019,1.66361l0.1721,1.25626l0.5673,1.49249l0.30032,0.90045c0.29825,0.31614 0.35879,0.73995 0.35879,0.73995l-0.12345,0.19589l0.01114,0.05339l0.16918,-0.21565l0.96787,-0.66588l0.93562,-0.74961l1.6,-1.4l2.34368,-0.968l0.70852,2.72663l-0.00242,1.52233l0.16613,1.37865l0.36546,1.12203l0.95864,0.56797l0.93588,0.7561l0.39462,0.40987l0.29803,-0.48836l1.12085,-1.12257l1.32029,-1.5059l0.71138,-1.06753l0.5631,-1.13161l1.71803,-1.89099l1.73044,1.91652l0.83497,1.88148l-0.09895,0.59449l0.27637,-0.2058l0.32261,-0.66135l0.33265,-1.21874c0,0 0.04143,-0.14498 0.14585,-0.31985c-0.01992,-0.3799 0.13801,-0.69576 0.13801,-0.69576l0.51922,-0.99501l0.98506,-2.62551l2.46809,1.50806l0.94098,2.50581l0.37703,1.53198l0.74568,1.47467l0.81594,1.63308l0.61496,1.43354l0.1691,0.33338c0,0 0.55902,1.11804 -0.55901,1.67705c-1.11804,0.55901 -1.67705,-0.55902 -1.67705,-0.55902z"></path></g></g></svg>