<svg version="1.1" xmlns="http://www.w3.org/2000/svg" xmlns:xlink="http://www.w3.org/1999/xlink" width="128.43722" height="102.43722" viewBox="0,0,128.43722,102.43722"><g transform="translate(-175.78139,-128.78139)"><g stroke-miterlimit="10"><path d="M177.53139,229.46861v-98.93722h124.93722v98.93722z" fill="#000000" stroke="none" stroke-width="0"/><path d="M177.53139,229.46861v-98.93722h124.93722v98.93722z" fill="#000000" stroke="none" stroke-width="0"/><path d="M177.53139,229.46861v-98.93722h124.93722v98.93722z" fill="#000000" stroke="none" stroke-width="0"/><path d="M177.53139,229.46861v-98.93722h124.93722v98.93722z" fill="#000000" stroke="none" stroke-width="0"/><path d="M177.53139,229.46861v-98.93722h124.93722v98.93722z" fill="#000000" stroke="none" stroke-width="0"/><path d="M177.53139,229.46861v-98.93722h124.93722v98.93722z" fill="#000000" stroke="none" stroke-width="0"/><path d="M177.53139,229.46861v-98.93722h124.93722v98.93722z" fill="#000000" stroke="none" stroke-width="0"/><path d="M177.53139,229.46861v-98.93722h124.93722v98.93722z" fill="#000000" stroke="none" stroke-width="0"/><path d="M177.53139,229.46861v-98.93722h124.93722v98.93722z" fill="#000000" stroke="none" stroke-width="0"/><path d="M177.53139,229.46861v-98.93722h124.93722v98.93722z" fill="#000000" stroke="none" stroke-width="0"/><path d="M177.53139,229.46861v-98.93722h124.93722v98.93722z" fill="#000000" stroke="none" stroke-width="0"/><path d="M177.53139,229.46861v-98.93722h124.93722v98.93722z" fill="#000000" stroke="none" stroke-width="0"/><path d="M177.53139,229.46861v-98.93722h124.93722v98.93722z" fill="none" stroke="#0077ff" stroke-width="3.5"/><path d="M177.53139,229.46861v-98.93722h124.93722v98.93722z" fill="none" stroke="#0077ff" stroke-width="3.5"/><path d="M177.53139,229.46861v-98.93722h124.93722v98.93722z" fill="none" stroke="#0077ff" stroke-width="3.5"/><path d="M177.53139,229.46861v-98.93722h124.93722v98.93722z" fill="none" stroke="#0077ff" stroke-width="3.5"/><path d="M177.53139,229.46861v-98.93722h124.93722v98.93722z" fill="none" stroke="#0077ff" stroke-width="3.5"/><path d="M177.53139,229.46861v-98.93722h124.93722v98.93722z" fill="none" stroke="#0077ff" stroke-width="3.5"/><path d="M177.53139,229.46861v-98.93722h124.93722v98.93722z" fill="none" stroke="#0077ff" stroke-width="3.5"/><path d="M177.53139,229.46861v-98.93722h124.93722v98.93722z" fill="none" stroke="#0077ff" stroke-width="3.5"/></g></g></svg>