<svg version="1.1" xmlns="http://www.w3.org/2000/svg" xmlns:xlink="http://www.w3.org/1999/xlink" width="488" height="367" viewBox="0,0,488,367"><defs><linearGradient x1="240" y1="-3.5" x2="240" y2="363.5" gradientUnits="userSpaceOnUse" id="color-1"><stop offset="0" stop-color="#404040"/><stop offset="1" stop-color="#000000"/></linearGradient></defs><g transform="translate(4,3.5)"><g stroke="none" stroke-miterlimit="10"><path d="M-4,363.5v-367h488v367z" fill="url(#color-1)" stroke-width="NaN"/><path d="M57.5,83.11725l-2.5,-51h76l-2.5,51z" fill="#000000" stroke-width="0"/><text transform="translate(72.35002,43.40044) scale(0.25656,0.25568)" font-size="40" xml:space="preserve" fill="#00ff15" stroke-width="1" font-family="Pixel" font-weight="normal" text-anchor="start"><tspan x="0" dy="0">BREACH</tspan></text><text transform="translate(58.92307,80.87963) scale(0.23012,0.25026)" font-size="40" xml:space="preserve" fill="#00ff15" stroke-width="1" font-family="Pixel" font-weight="normal" text-anchor="start"><tspan x="0" dy="0">NEUTRALIZED</tspan></text><g><path d="M351.27252,83.11725l-2.5,-51h76l-2.5,51z" fill="#000000" stroke-width="0"/><text transform="translate(366.12254,43.40044) scale(0.25657,0.25568)" font-size="40" xml:space="preserve" fill="#00ff15" stroke-width="1" font-family="Pixel" font-weight="normal" text-anchor="start"><tspan x="0" dy="0">BREACH</tspan></text><text transform="translate(352.69559,80.87963) scale(0.23013,0.25026)" font-size="40" xml:space="preserve" fill="#00ff15" stroke-width="1" font-family="Pixel" font-weight="normal" text-anchor="start"><tspan x="0" dy="0">NEUTRALIZED</tspan></text><path d="M387.92252,45.18333l13.75,25.25h-27.5z" fill="#00ff15" stroke-width="0"/><path d="M378.41117,63.52238l2.3565,-2.37143l3.1751,2.51871l7.43609,-8.70369l2.5402,2.30123l-9.82531,11.36544z" fill="#000000" stroke-width="0"/></g><path d="M94.15,45.18333l13.75,25.25h-27.5z" fill="#00ff15" stroke-width="0"/><path d="M84.63865,63.52238l2.35651,-2.37143l3.17511,2.51871l7.43609,-8.70369l2.54021,2.30123l-9.82531,11.36544z" fill="#000000" stroke-width="0"/></g></g></svg>