<svg version="1.1" xmlns="http://www.w3.org/2000/svg" xmlns:xlink="http://www.w3.org/1999/xlink" width="128.43722" height="107.43722" viewBox="0,0,128.43722,107.43722"><g transform="translate(-175.78139,-126.28139)"><g stroke-miterlimit="10"><path d="M177.53139,231.96861v-103.93722h124.93722v103.93722z" fill="#000000" stroke="none" stroke-width="0"/><path d="M177.53139,231.96861v-103.93722h124.93722v103.93722z" fill="#000000" stroke="none" stroke-width="0"/><path d="M177.53139,231.96861v-103.93722h124.93722v103.93722z" fill="#000000" stroke="none" stroke-width="0"/><path d="M177.53139,231.96861v-103.93722h124.93722v103.93722z" fill="#000000" stroke="none" stroke-width="0"/><path d="M177.53139,231.96861v-103.93722h124.93722v103.93722z" fill="#000000" stroke="none" stroke-width="0"/><path d="M177.53139,231.96861v-103.93722h124.93722v103.93722z" fill="#000000" stroke="none" stroke-width="0"/><path d="M177.53139,231.96861v-103.93722h124.93722v103.93722z" fill="#000000" stroke="none" stroke-width="0"/><path d="M177.53139,231.96861v-103.93722h124.93722v103.93722z" fill="#000000" stroke="none" stroke-width="0"/><path d="M177.53139,231.96861v-103.93722h124.93722v103.93722z" fill="#000000" stroke="none" stroke-width="0"/><path d="M177.53139,231.96861v-103.93722h124.93722v103.93722z" fill="#000000" stroke="none" stroke-width="0"/><path d="M177.53139,231.96861v-103.93722h124.93722v103.93722z" fill="#000000" stroke="none" stroke-width="0"/><path d="M177.53139,231.96861v-103.93722h124.93722v103.93722z" fill="#000000" stroke="none" stroke-width="0"/><path d="M177.53139,231.96861v-103.93722h124.93722v103.93722z" fill="none" stroke="#0077ff" stroke-width="3.5"/><path d="M177.53139,231.96861v-103.93722h124.93722v103.93722z" fill="none" stroke="#0077ff" stroke-width="3.5"/><path d="M177.53139,231.96861v-103.93722h124.93722v103.93722z" fill="none" stroke="#0077ff" stroke-width="3.5"/><path d="M177.53139,231.96861v-103.93722h124.93722v103.93722z" fill="none" stroke="#0077ff" stroke-width="3.5"/><path d="M177.53139,231.96861v-103.93722h124.93722v103.93722z" fill="none" stroke="#0077ff" stroke-width="3.5"/><path d="M177.53139,231.96861v-103.93722h124.93722v103.93722z" fill="none" stroke="#0077ff" stroke-width="3.5"/><path d="M177.53139,231.96861v-103.93722h124.93722v103.93722z" fill="none" stroke="#0077ff" stroke-width="3.5"/><path d="M177.53139,231.96861v-103.93722h124.93722v103.93722z" fill="none" stroke="#0077ff" stroke-width="3.5"/></g></g></svg>