<svg version="1.1" xmlns="http://www.w3.org/2000/svg" xmlns:xlink="http://www.w3.org/1999/xlink" width="490.5" height="31.5" viewBox="0,0,490.5,31.5"><g transform="translate(5.25,-164.25)"><g stroke-miterlimit="10"><path d="M-4.5,195v-30h489v30z" fill="#000000" stroke="#ffffff" stroke-width="1.5" stroke-linecap="butt"/><g><path d="M5.71292,179.46666c0,-4.78647 3.87674,-8.66667 8.65894,-8.66667c4.7822,0 8.65894,3.8802 8.65894,8.66667c0,4.78647 -3.87674,8.66667 -8.65894,8.66667c-4.7822,0 -8.65894,-3.8802 -8.65894,-8.66667z" fill="#ffffff" stroke="none" stroke-width="0" stroke-linecap="butt"/><path d="M13.39663,177.82162c0,2.28464 -0.72763,4.1367 -1.62511,4.1367c-0.89755,0 -1.62511,-1.85204 -1.62511,-4.1367c0,-2.28464 0.72756,-4.1367 1.62511,-4.1367c0.89751,0 1.62511,1.85204 1.62511,4.1367z" fill="#000000" stroke="#000000" stroke-width="0.5" stroke-linecap="butt"/><path d="M19.15846,177.82162c0,2.28464 -0.72763,4.1367 -1.62514,4.1367c-0.89755,0 -1.62511,-1.85204 -1.62511,-4.1367c0,-2.28464 0.72756,-4.1367 1.62511,-4.1367c0.89751,0 1.62514,1.85204 1.62514,4.1367z" fill="#000000" stroke="#000000" stroke-width="0.5" stroke-linecap="butt"/><path d="M12.29989,185.50407h4.06282" fill="none" stroke="#000000" stroke-width="0.5" stroke-linecap="round"/></g><path d="M80.9,194.94999v-29.75h8.5v29.75z" fill="#333333" stroke="#ffffff" stroke-width="1.5" stroke-linecap="butt"/></g></g></svg>