<svg version="1.1" xmlns="http://www.w3.org/2000/svg" xmlns:xlink="http://www.w3.org/1999/xlink" width="22.94074" height="62.2167" viewBox="0,0,22.94074,62.2167"><g transform="translate(-231.5422,-148.89168)"><g stroke-width="0.5" stroke-miterlimit="10"><g fill="#005aff" stroke="#000000" stroke-linecap="round" stroke-linejoin="round"><path d="M242.34107,169.43557l-1.69248,5.76111l-0.09495,4.42149l1.64566,-5.76465"/><path d="M239.03031,175.14449l11.04396,0.30782l-0.12091,4.41855l-11.01294,-0.30246"/></g><path d="M252.80749,178.36173c-0.49497,1.583 -2.17949,2.46505 -3.76249,1.9701c-1.583,-0.49497 -2.46505,-2.17949 -1.97008,-3.76248c0.49495,-1.583 2.17949,-2.46505 3.76248,-1.97008c1.583,0.49495 2.46502,2.17946 1.97008,3.76246z" fill="#ffffff" stroke="#000000" stroke-linecap="butt" stroke-linejoin="miter"/><path d="M236.43106,190.03014c-0.61864,0 -1.12015,-0.51468 -1.12015,-1.14953v-1.92955c0,-0.63485 0.5015,-1.14951 1.12015,-1.14951h7.16111c0.61864,0 1.12016,0.51467 1.12016,1.14951v1.92955c0,0.63485 -0.50152,1.14953 -1.12016,1.14953z" fill="#692b00" stroke="#000000" stroke-linecap="butt" stroke-linejoin="miter"/><path d="M239.74307,169.90496c-0.5026,0 -0.91006,-0.51467 -0.91006,-1.14951v-3.95149c0,-0.63485 0.40745,-1.14953 0.91006,-1.14953h0.91001c0.5026,0 0.91006,0.51468 0.91006,1.14953v3.95149c0,0.63485 -0.40745,1.14951 -0.91006,1.14951z" fill="#ffffff" stroke="#000000" stroke-linecap="butt" stroke-linejoin="miter"/><path d="M231.7922,157.54755c0,-4.64243 3.76344,-8.40587 8.40587,-8.40587c4.64243,0 8.40587,3.76344 8.40587,8.40587c0,4.64243 -3.76344,8.40587 -8.40587,8.40587c-4.64243,0 -8.40587,-3.76344 -8.40587,-8.40587z" fill="#ffffff" stroke="#000000" stroke-linecap="butt" stroke-linejoin="miter"/><path d="M236.46214,187.57885c-0.63485,0 -1.14953,-0.51467 -1.14953,-1.14951v-17.31467c0,-0.63485 0.51468,-1.14953 1.14953,-1.14953h7.11265c0.63485,0 1.14953,0.51468 1.14953,1.14953v17.31467c0,0.63485 -0.51468,1.14951 -1.14953,1.14951z" fill="#005aff" stroke="#000000" stroke-linecap="butt" stroke-linejoin="miter"/><path d="M239.61225,189.13105l-0.35318,10.74875l-4.41915,-0.17311l0.35388,-10.70179" fill="#692b00" stroke="#000000" stroke-linecap="round" stroke-linejoin="round"/><path d="M244.59548,189.00489l0.35388,10.70179l-4.41913,0.17311l-0.3532,-10.74875" fill="#692b00" stroke="#000000" stroke-linecap="round" stroke-linejoin="round"/><path d="M239.30713,198.26653l-0.36534,11.011l-4.41773,-0.147l0.36184,-11.04233" fill="#692b00" stroke="#000000" stroke-linecap="round" stroke-linejoin="round"/><path d="M244.90338,198.08824l0.36183,11.04233l-4.41773,0.147l-0.36536,-11.011" fill="#692b00" stroke="#000000" stroke-linecap="round" stroke-linejoin="round"/><path d="M241.73668,210.85839c-0.46369,0 -0.83961,-0.37592 -0.83961,-0.83961v-1.79914c0,-0.46369 0.37592,-0.83961 0.83961,-0.83961h4.4379c0.46369,0 0.83961,0.37592 0.83961,0.83961v1.79914c0,0.46369 -0.37592,0.83961 -0.83961,0.83961z" fill="#001d69" stroke="#000000" stroke-linecap="butt" stroke-linejoin="miter"/><g stroke-linejoin="miter"><path d="M238.5206,189.70542v-1.51902h2.91485v1.51902z" fill="#692b00" stroke="none" stroke-linecap="butt"/><path d="M240.71512,189.54822h-1.59364" fill="none" stroke="#000000" stroke-linecap="round"/></g><path d="M242.42532,157.21508c0,1.77762 -0.56615,3.21866 -1.26446,3.21866c-0.69836,0 -1.26446,-1.44103 -1.26446,-3.21866c0,-1.77762 0.5661,-3.21866 1.26446,-3.21866c0.69833,0 1.26446,1.44103 1.26446,3.21866z" fill="#000000" stroke="#000000" stroke-linecap="butt" stroke-linejoin="miter"/><path d="M246.90846,157.21508c0,1.77762 -0.56615,3.21866 -1.26448,3.21866c-0.69836,0 -1.26446,-1.44103 -1.26446,-3.21866c0,-1.77762 0.5661,-3.21866 1.26446,-3.21866c0.69833,0 1.26448,1.44103 1.26448,3.21866z" fill="#000000" stroke="#000000" stroke-linecap="butt" stroke-linejoin="miter"/><path d="M241.57198,163.1926h3.16118" fill="none" stroke="#000000" stroke-linecap="round" stroke-linejoin="miter"/><g fill="#005aff" stroke="#000000" stroke-linecap="round" stroke-linejoin="round"><path d="M234.85063,168.09335l5.93606,7.23l-0.2869,4.41322l-5.88911,-7.2295"/><path d="M240.37521,175.23375l9.59796,1.04888l-0.26079,4.41248l-9.62933,-1.04622"/></g><path d="M248.25029,178.77234c-0.14686,-1.65206 1.07334,-3.1104 2.7254,-3.25725c1.65206,-0.14688 3.1104,1.07334 3.25725,2.7254c0.14688,1.65206 -1.07334,3.11037 -2.7254,3.25725c-1.65206,0.14686 -3.11037,-1.07334 -3.25725,-2.7254z" fill="#ffffff" stroke="#000000" stroke-linecap="butt" stroke-linejoin="miter"/><path d="M235.56981,210.85839c-0.46371,0 -0.83961,-0.37592 -0.83961,-0.83961v-1.79914c0,-0.46369 0.3759,-0.83961 0.83961,-0.83961h4.43787c0.46371,0 0.83961,0.37592 0.83961,0.83961v1.79914c0,0.46369 -0.3759,0.83961 -0.83961,0.83961z" fill="#001d69" stroke="#000000" stroke-linecap="butt" stroke-linejoin="miter"/></g></g></svg>