<svg version="1.1" xmlns="http://www.w3.org/2000/svg" xmlns:xlink="http://www.w3.org/1999/xlink" width="46.23516" height="62.21669" viewBox="0,0,46.23516,62.21669"><g transform="translate(-220.63305,-148.89168)"><g stroke-width="0.5" stroke-miterlimit="10"><g fill="#005aff" stroke="#000000" stroke-linecap="round" stroke-linejoin="round"><path d="M243.60188,168.58811l10.70383,-0.28511l0.1447,4.42014l-10.75078,0.28411"/><path d="M252.68698,168.33857l11.04442,-0.29088l0.11862,4.41861l-11.01315,0.29455"/></g><path d="M266.61821,170.80477c-0.40849,1.60749 -2.04275,2.57949 -3.65024,2.17102c-1.60749,-0.40849 -2.57949,-2.04275 -2.171,-3.65024c0.40847,-1.60749 2.04275,-2.57949 3.65024,-2.171c1.60749,0.40847 2.57947,2.04273 2.171,3.65022z" fill="#ffffff" stroke="#000000" stroke-linecap="butt" stroke-linejoin="miter"/><path d="M236.43106,190.03015c-0.61864,0 -1.12015,-0.51468 -1.12015,-1.14953v-1.92955c0,-0.63485 0.5015,-1.14951 1.12015,-1.14951h7.16111c0.61864,0 1.12016,0.51467 1.12016,1.14951v1.92955c0,0.63485 -0.50152,1.14953 -1.12016,1.14953z" fill="#692b00" stroke="#000000" stroke-linecap="butt" stroke-linejoin="miter"/><path d="M239.74307,169.90495c-0.5026,0 -0.91006,-0.51467 -0.91006,-1.14951v-3.95149c0,-0.63485 0.40745,-1.14953 0.91006,-1.14953h0.91001c0.5026,0 0.91006,0.51468 0.91006,1.14953v3.95149c0,0.63485 -0.40745,1.14951 -0.91006,1.14951z" fill="#ffffff" stroke="#000000" stroke-linecap="butt" stroke-linejoin="miter"/><path d="M231.7922,157.54755c0,-4.64243 3.76344,-8.40587 8.40587,-8.40587c4.64243,0 8.40587,3.76344 8.40587,8.40587c0,4.64243 -3.76344,8.40587 -8.40587,8.40587c-4.64243,0 -8.40587,-3.76344 -8.40587,-8.40587z" fill="#ffffff" stroke="#000000" stroke-linecap="butt" stroke-linejoin="miter"/><path d="M236.46214,187.57885c-0.63485,0 -1.14953,-0.51467 -1.14953,-1.14951v-17.31467c0,-0.63485 0.51468,-1.14953 1.14953,-1.14953h7.11265c0.63485,0 1.14953,0.51468 1.14953,1.14953v17.31467c0,0.63485 -0.51468,1.14951 -1.14953,1.14951z" fill="#005aff" stroke="#000000" stroke-linecap="butt" stroke-linejoin="miter"/><path d="M239.61225,189.13106l-0.35318,10.74875l-4.41915,-0.17311l0.35388,-10.70179" fill="#692b00" stroke="#000000" stroke-linecap="round" stroke-linejoin="round"/><path d="M244.59548,189.0049l0.35388,10.70179l-4.41913,0.17311l-0.3532,-10.74875" fill="#692b00" stroke="#000000" stroke-linecap="round" stroke-linejoin="round"/><path d="M239.30713,198.26654l-0.36534,11.011l-4.41773,-0.147l0.36184,-11.04233" fill="#692b00" stroke="#000000" stroke-linecap="round" stroke-linejoin="round"/><path d="M244.90338,198.08823l0.36183,11.04233l-4.41773,0.147l-0.36536,-11.011" fill="#692b00" stroke="#000000" stroke-linecap="round" stroke-linejoin="round"/><path d="M241.73668,210.85838c-0.46369,0 -0.83961,-0.37592 -0.83961,-0.83961v-1.79914c0,-0.46369 0.37592,-0.83961 0.83961,-0.83961h4.4379c0.46369,0 0.83961,0.37592 0.83961,0.83961v1.79914c0,0.46369 -0.37592,0.83961 -0.83961,0.83961z" fill="#001d69" stroke="#000000" stroke-linecap="butt" stroke-linejoin="miter"/><g stroke-linejoin="miter"><path d="M238.5206,189.70543v-1.51902h2.91485v1.51902z" fill="#692b00" stroke="none" stroke-linecap="butt"/><path d="M240.71512,189.54823h-1.59364" fill="none" stroke="#000000" stroke-linecap="round"/></g><path d="M239.53872,157.4103c0,1.77762 -0.88138,3.21866 -1.9685,3.21866c-1.0872,0 -1.9685,-1.44103 -1.9685,-3.21866c0,-1.77762 0.8813,-3.21866 1.9685,-3.21866c1.08715,0 1.9685,1.44103 1.9685,3.21866z" fill="#000000" stroke="#000000" stroke-linecap="butt" stroke-linejoin="miter"/><path d="M246.51804,157.4103c0,1.77762 -0.88138,3.21866 -1.96854,3.21866c-1.0872,0 -1.9685,-1.44103 -1.9685,-3.21866c0,-1.77762 0.8813,-3.21866 1.9685,-3.21866c1.08715,0 1.96854,1.44103 1.96854,3.21866z" fill="#000000" stroke="#000000" stroke-linecap="butt" stroke-linejoin="miter"/><path d="M238.21024,163.38782h4.9213" fill="none" stroke="#000000" stroke-linecap="round" stroke-linejoin="miter"/><g fill="#005aff" stroke="#000000" stroke-linecap="round" stroke-linejoin="round"><path d="M234.61068,172.50704l-12.51089,4.4295l0.4869,-4.41322l12.26394,-4.43"/><path d="M221.17521,172.43372l9.59796,1.04888l-0.26079,4.41248l-9.62933,-1.04622"/></g><path d="M229.05029,175.97231c-0.14686,-1.65206 1.07334,-3.1104 2.7254,-3.25725c1.65206,-0.14688 3.1104,1.07334 3.25725,2.7254c0.14688,1.65206 -1.07334,3.11037 -2.7254,3.25725c-1.65206,0.14686 -3.11037,-1.07334 -3.25725,-2.7254z" fill="#ffffff" stroke="#000000" stroke-linecap="butt" stroke-linejoin="miter"/><path d="M235.56981,210.85838c-0.46371,0 -0.83961,-0.37592 -0.83961,-0.83961v-1.79914c0,-0.46369 0.3759,-0.83961 0.83961,-0.83961h4.43787c0.46371,0 0.83961,0.37592 0.83961,0.83961v1.79914c0,0.46369 -0.3759,0.83961 -0.83961,0.83961z" fill="#001d69" stroke="#000000" stroke-linecap="butt" stroke-linejoin="miter"/></g></g></svg>