<svg version="1.1" xmlns="http://www.w3.org/2000/svg" xmlns:xlink="http://www.w3.org/1999/xlink" width="19.35673" height="62.21664" viewBox="0,0,19.35673,62.21664"><g transform="translate(-230.32163,-148.89167)"><g stroke-width="0.5" stroke-miterlimit="10"><g fill="#005aff" stroke="#000000" stroke-linecap="round" stroke-linejoin="round"><path d="M244.67646,169.42244l1.98866,10.52134l-4.34048,0.84784l-1.99516,-10.56784"/><path d="M246.37183,178.35144l2.04868,10.85664l-4.34313,0.82185l-2.04732,-10.82519"/></g><path d="M246.15915,192.49769c-1.65206,-0.14688 -2.87228,-1.60519 -2.72542,-3.25725c0.14688,-1.65206 1.60519,-2.87228 3.25725,-2.7254c1.65206,0.14686 2.87228,1.60519 2.7254,3.25725c-0.14686,1.65206 -1.60517,2.87225 -3.25723,2.7254z" fill="#ffffff" stroke="#000000" stroke-linecap="butt" stroke-linejoin="miter"/><path d="M236.43106,190.0301c-0.61864,0 -1.12015,-0.51468 -1.12015,-1.14953v-1.92955c0,-0.63485 0.5015,-1.14951 1.12015,-1.14951h7.16111c0.61864,0 1.12016,0.51467 1.12016,1.14951v1.92955c0,0.63485 -0.50152,1.14953 -1.12016,1.14953z" fill="#692b00" stroke="#000000" stroke-linecap="butt" stroke-linejoin="miter"/><path d="M239.74307,169.90489c-0.5026,0 -0.91006,-0.51467 -0.91006,-1.14951v-3.95149c0,-0.63485 0.40745,-1.14953 0.91006,-1.14953h0.91001c0.5026,0 0.91006,0.51468 0.91006,1.14953v3.95149c0,0.63485 -0.40745,1.14951 -0.91006,1.14951z" fill="#ffffff" stroke="#000000" stroke-linecap="butt" stroke-linejoin="miter"/><path d="M231.7922,157.54755c0,-4.64243 3.76344,-8.40587 8.40587,-8.40587c4.64243,0 8.40587,3.76344 8.40587,8.40587c0,4.64243 -3.76344,8.40587 -8.40587,8.40587c-4.64243,0 -8.40587,-3.76344 -8.40587,-8.40587z" fill="#ffffff" stroke="#000000" stroke-linecap="butt" stroke-linejoin="miter"/><path d="M236.46214,187.57879c-0.63485,0 -1.14953,-0.51467 -1.14953,-1.14951v-17.31467c0,-0.63485 0.51468,-1.14953 1.14953,-1.14953h7.11265c0.63485,0 1.14953,0.51468 1.14953,1.14953v17.31467c0,0.63485 -0.51468,1.14951 -1.14953,1.14951z" fill="#005aff" stroke="#000000" stroke-linecap="butt" stroke-linejoin="miter"/><path d="M239.61225,189.13101l-0.35318,10.74875l-4.41915,-0.17311l0.35388,-10.70179" fill="#692b00" stroke="#000000" stroke-linecap="round" stroke-linejoin="round"/><path d="M244.59548,189.00485l0.35388,10.70179l-4.41913,0.17311l-0.3532,-10.74875" fill="#692b00" stroke="#000000" stroke-linecap="round" stroke-linejoin="round"/><path d="M239.30713,198.26649l-0.36534,11.011l-4.41773,-0.147l0.36184,-11.04233" fill="#692b00" stroke="#000000" stroke-linecap="round" stroke-linejoin="round"/><path d="M244.90338,198.08817l0.36183,11.04233l-4.41773,0.147l-0.36536,-11.011" fill="#692b00" stroke="#000000" stroke-linecap="round" stroke-linejoin="round"/><path d="M241.73668,210.85832c-0.46369,0 -0.83961,-0.37592 -0.83961,-0.83961v-1.79914c0,-0.46369 0.37592,-0.83961 0.83961,-0.83961h4.4379c0.46369,0 0.83961,0.37592 0.83961,0.83961v1.79914c0,0.46369 -0.37592,0.83961 -0.83961,0.83961z" fill="#001d69" stroke="#000000" stroke-linecap="butt" stroke-linejoin="miter"/><g stroke-linejoin="miter"><path d="M238.5206,189.70537v-1.51902h2.91485v1.51902z" fill="#692b00" stroke="none" stroke-linecap="butt"/><path d="M239.12148,189.54817h1.59364" fill="none" stroke="#000000" stroke-linecap="round"/></g><path d="M242.42532,157.21507c0,1.77762 -0.56615,3.21866 -1.26446,3.21866c-0.69836,0 -1.26446,-1.44103 -1.26446,-3.21866c0,-1.77762 0.5661,-3.21866 1.26446,-3.21866c0.69833,0 1.26446,1.44103 1.26446,3.21866z" fill="#000000" stroke="#000000" stroke-linecap="butt" stroke-linejoin="miter"/><path d="M246.90846,157.21507c0,1.77762 -0.56615,3.21866 -1.26448,3.21866c-0.69836,0 -1.26446,-1.44103 -1.26446,-3.21866c0,-1.77762 0.5661,-3.21866 1.26446,-3.21866c0.69833,0 1.26448,1.44103 1.26448,3.21866z" fill="#000000" stroke="#000000" stroke-linecap="butt" stroke-linejoin="miter"/><path d="M244.73316,163.19259h-3.16118" fill="none" stroke="#000000" stroke-linecap="round" stroke-linejoin="miter"/><g fill="#005aff" stroke="#000000" stroke-linecap="round" stroke-linejoin="round"><path d="M239.67053,170.22377l-1.99516,10.56784l-4.34051,-0.84784l1.98868,-10.52134"/><path d="M237.96992,179.20475l-2.04732,10.82519l-4.3431,-0.82185l2.04868,-10.85664"/></g><path d="M230.58362,189.77227c-0.14686,-1.65206 1.07334,-3.1104 2.7254,-3.25725c1.65206,-0.14688 3.1104,1.07334 3.25725,2.7254c0.14688,1.65206 -1.07334,3.11037 -2.7254,3.25725c-1.65206,0.14686 -3.11037,-1.07334 -3.25725,-2.7254z" fill="#ffffff" stroke="#000000" stroke-linecap="butt" stroke-linejoin="miter"/><path d="M235.56981,210.85832c-0.46371,0 -0.83961,-0.37592 -0.83961,-0.83961v-1.79914c0,-0.46369 0.3759,-0.83961 0.83961,-0.83961h4.43787c0.46371,0 0.83961,0.37592 0.83961,0.83961v1.79914c0,0.46369 -0.3759,0.83961 -0.83961,0.83961z" fill="#001d69" stroke="#000000" stroke-linecap="butt" stroke-linejoin="miter"/></g></g></svg>