<svg version="1.1" xmlns="http://www.w3.org/2000/svg" xmlns:xlink="http://www.w3.org/1999/xlink" width="32.02191" height="62.21669" viewBox="0,0,32.02191,62.21669"><g transform="translate(-230.03305,-148.89168)"><g stroke-width="0.5" stroke-miterlimit="10"><g fill="#005aff" stroke="#000000" stroke-linecap="round" stroke-linejoin="round"><path d="M242.88185,169.08647l6.70539,5.26165l-0.00959,4.4225l-6.75227,-5.26429"/><path d="M247.96826,174.32721l11.04784,0.09462l-0.03561,4.42006l-11.01672,-0.08985"/></g><path d="M261.80496,177.27795c-0.46433,1.59226 -2.1315,2.50666 -3.72376,2.04235c-1.59226,-0.46433 -2.50666,-2.1315 -2.04233,-3.72376c0.46431,-1.59226 2.1315,-2.50666 3.72376,-2.04233c1.59226,0.46431 2.50663,2.13148 2.04233,3.72374z" fill="#ffffff" stroke="#000000" stroke-linecap="butt" stroke-linejoin="miter"/><path d="M236.43106,190.03015c-0.61864,0 -1.12015,-0.51468 -1.12015,-1.14953v-1.92955c0,-0.63485 0.5015,-1.14951 1.12015,-1.14951h7.16111c0.61864,0 1.12016,0.51467 1.12016,1.14951v1.92955c0,0.63485 -0.50152,1.14953 -1.12016,1.14953z" fill="#692b00" stroke="#000000" stroke-linecap="butt" stroke-linejoin="miter"/><path d="M239.74307,169.90495c-0.5026,0 -0.91006,-0.51467 -0.91006,-1.14951v-3.95149c0,-0.63485 0.40745,-1.14953 0.91006,-1.14953h0.91001c0.5026,0 0.91006,0.51468 0.91006,1.14953v3.95149c0,0.63485 -0.40745,1.14951 -0.91006,1.14951z" fill="#ffffff" stroke="#000000" stroke-linecap="butt" stroke-linejoin="miter"/><path d="M231.7922,157.54755c0,-4.64243 3.76344,-8.40587 8.40587,-8.40587c4.64243,0 8.40587,3.76344 8.40587,8.40587c0,4.64243 -3.76344,8.40587 -8.40587,8.40587c-4.64243,0 -8.40587,-3.76344 -8.40587,-8.40587z" fill="#ffffff" stroke="#000000" stroke-linecap="butt" stroke-linejoin="miter"/><path d="M236.46214,187.57885c-0.63485,0 -1.14953,-0.51467 -1.14953,-1.14951v-17.31467c0,-0.63485 0.51468,-1.14953 1.14953,-1.14953h7.11265c0.63485,0 1.14953,0.51468 1.14953,1.14953v17.31467c0,0.63485 -0.51468,1.14951 -1.14953,1.14951z" fill="#005aff" stroke="#000000" stroke-linecap="butt" stroke-linejoin="miter"/><path d="M239.61225,189.13106l-0.35318,10.74875l-4.41915,-0.17311l0.35388,-10.70179" fill="#692b00" stroke="#000000" stroke-linecap="round" stroke-linejoin="round"/><path d="M244.59548,189.0049l0.35388,10.70179l-4.41913,0.17311l-0.3532,-10.74875" fill="#692b00" stroke="#000000" stroke-linecap="round" stroke-linejoin="round"/><path d="M239.30713,198.26654l-0.36534,11.011l-4.41773,-0.147l0.36184,-11.04233" fill="#692b00" stroke="#000000" stroke-linecap="round" stroke-linejoin="round"/><path d="M244.90338,198.08823l0.36183,11.04233l-4.41773,0.147l-0.36536,-11.011" fill="#692b00" stroke="#000000" stroke-linecap="round" stroke-linejoin="round"/><path d="M241.73668,210.85838c-0.46369,0 -0.83961,-0.37592 -0.83961,-0.83961v-1.79914c0,-0.46369 0.37592,-0.83961 0.83961,-0.83961h4.4379c0.46369,0 0.83961,0.37592 0.83961,0.83961v1.79914c0,0.46369 -0.37592,0.83961 -0.83961,0.83961z" fill="#001d69" stroke="#000000" stroke-linecap="butt" stroke-linejoin="miter"/><g stroke-linejoin="miter"><path d="M238.5206,189.70543v-1.51902h2.91485v1.51902z" fill="#692b00" stroke="none" stroke-linecap="butt"/><path d="M240.71512,189.54822h-1.59364" fill="none" stroke="#000000" stroke-linecap="round"/></g><path d="M240.7404,157.21508c0,1.77762 -0.77893,3.21866 -1.73969,3.21866c-0.96083,0 -1.73969,-1.44103 -1.73969,-3.21866c0,-1.77762 0.77886,-3.21866 1.73969,-3.21866c0.96079,0 1.73969,1.44103 1.73969,3.21866z" fill="#000000" stroke="#000000" stroke-linecap="butt" stroke-linejoin="miter"/><path d="M246.90846,157.21508c0,1.77762 -0.77893,3.21866 -1.73972,3.21866c-0.96083,0 -1.73969,-1.44103 -1.73969,-3.21866c0,-1.77762 0.77886,-3.21866 1.73969,-3.21866c0.96079,0 1.73972,1.44103 1.73972,3.21866z" fill="#000000" stroke="#000000" stroke-linecap="butt" stroke-linejoin="miter"/><path d="M239.56634,163.1926h4.34926" fill="none" stroke="#000000" stroke-linecap="round" stroke-linejoin="miter"/><g fill="#005aff" stroke="#000000" stroke-linecap="round" stroke-linejoin="round"><path d="M234.61068,172.50704l-3.91089,7.6295l0.2869,-4.41322l3.86394,-7.63"/><path d="M230.57521,175.63374l9.59796,1.04888l-0.26079,4.41248l-9.62933,-1.04622"/></g><path d="M238.45029,179.17233c-0.14686,-1.65206 1.07334,-3.1104 2.7254,-3.25725c1.65206,-0.14688 3.1104,1.07334 3.25725,2.7254c0.14688,1.65206 -1.07334,3.11037 -2.7254,3.25725c-1.65206,0.14686 -3.11037,-1.07334 -3.25725,-2.7254z" fill="#ffffff" stroke="#000000" stroke-linecap="butt" stroke-linejoin="miter"/><path d="M235.56981,210.85838c-0.46371,0 -0.83961,-0.37592 -0.83961,-0.83961v-1.79914c0,-0.46369 0.3759,-0.83961 0.83961,-0.83961h4.43787c0.46371,0 0.83961,0.37592 0.83961,0.83961v1.79914c0,0.46369 -0.3759,0.83961 -0.83961,0.83961z" fill="#001d69" stroke="#000000" stroke-linecap="butt" stroke-linejoin="miter"/></g></g></svg>